<svg width="292" height="37" viewBox="0 0 292 37" fill="none" xmlns="http://www.w3.org/2000/svg">
<rect y="19" width="292" height="18" rx="9" fill="url(#paint0_linear_883_1571)"/>
<path d="M6.375 1.60938V8.71875H5.42188V5.13281H4.78125V8.39062H3.83594V1.71094H4.78125V4.32031H5.42188V1.60938H6.375ZM0.414062 6.92969V2.34375H3.24219V6.92969H0.414062ZM1.34375 6.14844H2.3125V3.13281H1.34375V6.14844ZM13.625 5.58594V6.39844H10.8438V8.72656H9.85938V6.39844H7.11719V5.58594H13.625ZM7.77344 3.46094C7.76953 2.47266 8.82422 1.84766 10.3516 1.84375C11.8789 1.84766 12.9453 2.47266 12.9453 3.46094C12.9453 4.42578 11.8789 5.04688 10.3516 5.04688C8.82422 5.04688 7.76953 4.42578 7.77344 3.46094ZM8.79688 3.46094C8.79297 3.96875 9.39844 4.25391 10.3516 4.25781C11.3125 4.25391 11.9141 3.96875 11.9141 3.46094C11.9141 2.93359 11.3125 2.64453 10.3516 2.64062C9.39844 2.64453 8.79297 2.93359 8.79688 3.46094ZM21.8359 1.61719V6.80469H20.8359V1.61719H21.8359ZM15.8594 5.04688C17.0508 4.64844 17.5703 3.66016 17.5703 2.69531V2.00781H18.6094V2.69531C18.6016 3.63672 19.1055 4.55469 20.2734 4.92969L19.7656 5.71094C18.9609 5.44531 18.4102 4.91406 18.0938 4.23828C17.7734 4.96484 17.207 5.55078 16.375 5.83594L15.8594 5.04688ZM17.0703 8.59375V6.30469H18.0781V7.79688H22.0234V8.59375H17.0703ZM25.4609 2.82812C25.4609 3.74609 25.9531 4.66016 27.0859 5.03906L26.5469 5.82031C25.793 5.54297 25.2734 5.01953 24.9727 4.35938C24.668 5.10547 24.1133 5.6875 23.2891 5.98438L22.75 5.20312C23.9375 4.8125 24.4492 3.83984 24.4531 2.82031V2.04688H25.4609V2.82812ZM24.0547 8.59375V6.3125H25.0625V7.79688H28.9375V8.59375H24.0547ZM26.4609 3.92969V3.125H27.7969V1.61719H28.7891V6.86719H27.7969V3.92969H26.4609Z" fill="#05920A"/>
<path d="M141.773 2.49219V3.30469H140.852V4.03906H141.773V4.85938H140.852V5.76562H139.852V1.60938H140.852V2.49219H141.773ZM135.258 3.71875C135.254 2.70703 136.098 1.99609 137.211 2C138.312 1.99609 139.148 2.70703 139.148 3.71875C139.148 4.72266 138.312 5.44141 137.211 5.4375C136.098 5.44141 135.254 4.72266 135.258 3.71875ZM136.086 7.32031C136.082 6.43359 137.035 5.91016 138.523 5.90625C139.984 5.91016 140.918 6.43359 140.922 7.32031C140.918 8.19531 139.984 8.72266 138.523 8.71875C137.035 8.72266 136.082 8.19531 136.086 7.32031ZM136.242 3.71875C136.234 4.27344 136.652 4.59766 137.211 4.60156C137.758 4.59766 138.176 4.27344 138.18 3.71875C138.176 3.17188 137.758 2.83203 137.211 2.83594C136.652 2.83203 136.234 3.17188 136.242 3.71875ZM137.086 7.32031C137.078 7.73828 137.59 7.92969 138.523 7.92969C139.445 7.92969 139.938 7.73828 139.938 7.32031C139.938 6.90625 139.445 6.69922 138.523 6.69531C137.59 6.69922 137.078 6.90625 137.086 7.32031ZM148.32 2.50781V3.30469H142.406V2.50781H144.867V1.67969H145.852V2.50781H148.32ZM142.125 7.99219V7.19531H144.867V6.37891C143.656 6.26953 142.922 5.77344 142.93 4.99219C142.922 4.12891 143.855 3.61328 145.359 3.61719C146.836 3.61328 147.785 4.12891 147.781 4.99219C147.785 5.77344 147.043 6.26953 145.852 6.375V7.19531H148.633V7.99219H142.125ZM143.953 4.99219C143.949 5.41406 144.438 5.60547 145.359 5.60156C146.262 5.60547 146.758 5.41406 146.758 4.99219C146.758 4.58594 146.262 4.39453 145.359 4.39062C144.438 4.39453 143.949 4.58594 143.953 4.99219Z" fill="#DED001"/>
<path d="M258.195 2.20312V3H257.617V4.97266C257.902 4.94922 258.18 4.92188 258.445 4.89062L258.516 5.625C257.094 5.86719 255.469 5.89062 254.281 5.89062L254.172 5.09375C254.414 5.09375 254.676 5.08984 254.945 5.08594V3H254.359V2.20312H258.195ZM255.242 8.59375V6.35156H256.234V7.79688H260.109V8.59375H255.242ZM255.906 5.0625C256.152 5.05469 256.406 5.04688 256.656 5.03516V3H255.906V5.0625ZM258.852 6.85156V1.61719H259.852V3.61719H260.812V4.44531H259.852V6.85156H258.852ZM267.289 1.60938V8.71875H266.336V5.13281H265.695V8.39062H264.75V1.71094H265.695V4.32031H266.336V1.60938H267.289ZM261.328 6.92969V2.34375H264.156V6.92969H261.328ZM262.258 6.14844H263.227V3.13281H262.258V6.14844ZM275.836 1.61719V5.63281H274.836V1.61719H275.836ZM269.992 3.65625C269.992 2.64062 270.828 1.9375 271.938 1.9375C273.043 1.9375 273.879 2.64062 273.883 3.65625C273.879 4.63281 273.043 5.35156 271.938 5.35156C270.828 5.35156 269.992 4.63281 269.992 3.65625ZM270.969 3.65625C270.961 4.18359 271.367 4.51562 271.938 4.51562C272.492 4.51562 272.895 4.18359 272.898 3.65625C272.895 3.09766 272.492 2.77344 271.938 2.77344C271.367 2.77344 270.961 3.09766 270.969 3.65625ZM271.07 8.64062V5.95312H275.836V8.64062H271.07ZM272.055 7.84375H274.859V6.74219H272.055V7.84375ZM282.438 1.60938V3.35156H283.398V4.15625H282.438V5.88281H281.438V1.60938H282.438ZM277.008 5.50781V2.05469H278V3H279.453V2.05469H280.453V5.50781H277.008ZM277.648 6.98438V6.19531H282.438V8.71875H281.438V6.98438H277.648ZM278 4.71875H279.453V3.77344H278V4.71875Z" fill="#CC0202"/>
<rect x="15" y="10" width="1" height="18" fill="#05920A"/>
<rect x="144" y="10" width="1" height="18" fill="#DED001"/>
<rect x="273" y="10" width="1" height="18" fill="#C30707"/>
<defs>
<linearGradient id="paint0_linear_883_1571" x1="0" y1="28" x2="292" y2="28" gradientUnits="userSpaceOnUse">
<stop stop-color="#00FF48"/>
<stop offset="0.5" stop-color="#F1FF00"/>
<stop offset="1" stop-color="#FF0A0E"/>
</linearGradient>
</defs>
</svg>
