<svg width="24" height="24" viewBox="0 0 24 24" fill="none" xmlns="http://www.w3.org/2000/svg">
<path d="M10.5 17C14.0899 17 17 14.0899 17 10.5C17 6.91015 14.0899 4 10.5 4C6.91015 4 4 6.91015 4 10.5C4 14.0899 6.91015 17 10.5 17Z" stroke="#111111" stroke-width="1.5" stroke-miterlimit="10"/>
<path d="M19.4697 20.5303C19.7626 20.8232 20.2374 20.8232 20.5303 20.5303C20.8232 20.2374 20.8232 19.7626 20.5303 19.4697L20 20L19.4697 20.5303ZM15 15L14.4697 15.5303L19.4697 20.5303L20 20L20.5303 19.4697L15.5303 14.4697L15 15Z" fill="#111111"/>
</svg>
